<mxfile host="65bd71144e">
    <diagram id="BXcBBV4DXyu7TMgjBqan" name="Page-1">
        <mxGraphModel dx="454" dy="591" grid="1" gridSize="10" guides="1" tooltips="1" connect="1" arrows="1" fold="1" page="1" pageScale="1" pageWidth="850" pageHeight="1100" math="0" shadow="0">
            <root>
                <mxCell id="0"/>
                <mxCell id="1" parent="0"/>
                <mxCell id="38" value="" style="shape=image;verticalLabelPosition=bottom;labelBackgroundColor=#ffffff;verticalAlign=top;aspect=fixed;imageAspect=0;image=data:image/png,iVBORw0KGgoAAAANSUhEUgAAARIAAABqCAIAAAD/U0lsAAAbpklEQVR4Ae2dd1gU197Hcx8He5QBRGFYmoD0pSy9s7L0XsSoKKJgBSkKipDYABEQkF6FFRYpyg0m6pVgAwSDURLBsjHlJm+SW7ze1P33fcaz9zBug0GNK5znmWefM2dO/e58TtvzO/sOhhPoQgogBWgp8A6t0CgwUgApgOEEwgZ1tkgB2gogbGhLhppbpADCBmGDFKCtAMKGtmSorUUKIGwQNkgB2gogbGhLhtpapADCBmGDFKCtAMKGtmSorUUKIGwQNkgB2gogbGhLhtpapADCBmGDFKCtAMKGtmSorUUKIGwQNkgB2gogbGhLhtpapADCBmEjdwos1TIOTT6CKWnILZ8IG7l7aSS+K7q2Xjy+QFHbVPyp69odPL6AxxfUfPp/4k/fRp9NhyvjcmvlueS0scENHVxS6kNPfRpaNuKxn4cbOmA4YRadGVU3HlU3Hl55z+fYRcPgpDn/MxoNKuoHj+CnooE9VIS5Lju86p5hcCL0CS65BUNCh1/uFQwn9H0SoA9wOOysgBHFHU6JVSLhwe1iLQsQWN0+OLzqnktKA4y7WMsCRgkuveWS0ghLq24XHFU3DuPCKBhOyK4jNSTVvfFwRXrDx1QfGW4Z2IBYzlHxMwMbpZVM7tjPhLmTDDXe+CN62CzRtQopHXZNO72C5b+MyTaNzFC3DQbY+Of3KRrYKxm56PnEh1feNfDbDuoWVNRvvSlH2dgVXgrKWrDaPjmXLGOOehxogz5KRk4gpGdmu/u+M8CNryLh1PdJiKj5AqajbOz6ro4ljCjuWKJrBQJbxRwLKR2GERWUhAVgxeVbbTwWVv7ZPNWVIDrARtcrVtHAXtWC47a32S/vE9AEyMZGRh3FCwZ8EDYSlQlJOnTk3C2Jj+THkx42tvGFASeuYsqaIhUwi84EHQLwd0057ba3GbiDivpNIvaJhAe3igb2oWUjCwmj8Kp7CxkmImHc0pqcEquongAbqs8U3cZhqcElot/EHJwILLypyly9OvucpusakBTARs0mANwCVN7VJnsn2dhIq6PEEiYUNIFhFfzceFjYbVr6Rr9/9nrdnZ9Of/6fg619OjZskALobXy2ppf1P2kcfbq9iDtfVYeauMTexsJ7zbG/Djfdf1Z45b7H+t3U8BLdvvEZhVfuR6TlVQx+U337+7CUYyCYgjIjoaCp5Opj7tjPZTefRO7NAxMPM3ZY1fB36Q0fV9761mdret6FO+X9X+naeoFYhJljesPHjaNPy/u/Wp9dOk9FW2KmIp7ZZ6+tf/+UiKe83dLDJrDwpsWGQ+J1oGCjoWziFlQ86JxcB4LJwMY4PNUlpR7DCc/M9pWcOJFkXzc2qhZeIaXDmBLDPPqg/bZSkDsVm/kr9O0STgacuAa6x1eIDchLYm/jvn4Xe1OyNstDg+kcn99Y1v9krgrZSAFs8i7c0XPwNmWHVgx8vSajgKqYODbaLA/u+C8hSYcIM0e70Nj6z/7BClhPjSLu9o3PaHn4W3hKjoIyw2x1eOvjP7Ss3DCcmKeivSWv3owdtsLY1sJ7TfXt7zmb95KjDHYYjy8wcgtMKGjijv2sZ89JLOuIz2/EcGK+qk7pNf7uU+1aVm6GLv7HP747RRjq7/7TMyZJvGxy5UMHG2XNqLrxVYESGi0wt4mo+SKydiyqbjyk9LYqczWop8i4P6z8Dqw/O6sLjOXMojKoEwwQQCI2cOIBHEYhU9JXYm/DXJftuLsSw4kVLN+QkiHQhQJsIqpGwyvvRdWN++f3KZuQ782kvQ21YNQ6wsqKOyRiQw2mqG3K4wtAhwOwge+9//aDVcPfUQOLY5NY1pFU3gnDRKTlZZ7phbcSHb7xGY33/g1AxXDi1I0v3d7bKR5y87Hq1JpugA2YULmu3VHUO4bhhG98xgEuORH1ik2DzGM4YeoZ0nT/GUxZPE3gM1dFi8cX2IXGSgsgJ/40sFFQ0pKBTcCJq0pGTmA+wHCOhNUTmdsoGTmDR4sYZpG1Y0v1bTGcULXghFfehRMMEEAiNiJzm4UaxjAjGQ6J2PjkXNLz2YrhhIKSVmjZyAqWP4YTL85tvMCgdL7aqkmxoc5tYB1lFAnDCYnYqJs6pFSfrxr+rvXxH2AIZ+QWCHub5UY2IE0mJ5LHFyxWN4BZiGNz4vIoHAQCR3n/VzC8RIdvfEZR7zh8lH9p1H9bJrj1jc8ouPx50/1nICnAhhk7DKTpEBaXd4FsENmbkt9vv4HhxOacGpHceXwBYeYIE5fmOPPgV+eoBGlP5cSfBjbY88nAZIM0YrEWM6R0eKme8AuWNkjT9yWXxcIr74Erqm4cTjCANNKwmYZw4tgoGthH1Y2DXiW88l5k7ZjVphyIDZzbYEqMsPI7et7xk2JDa24DqiARm7yPPkuuOkfioaSxhGHE4wuMPYKkYbNIXR+qIRGbiLQ8GGAqDjC3gSFJbLYfxHDCLjT29Of/YQVuWLiCXDvZeLjiYMsnoLcRx+aDjpsAmyzeVZjU1B3FfQ8Dd2VNPfwbCUkPG9uEIv/8vkmXBGy2FjjuIsc/YHFW4ivltrfZLqFY0cAeXC4p9XCCASK+VmyMw1N9jl2EuZtE7COXOv7X20xggxPBxYNGocmvA5t1WcUHuH+jfusL1fR4fIGhC9nvYThh7B4kgg11kFZ561tqXFbA+sbRp1SfpPLOlOrzVJ9J3dKwWZ9dur/5MoyeeaZ3Umw4m/dW3vp2issAMGUMJ7YXcaljS+oj+XHTw2bJSlZI6W3X1MYV1n7LzD1NIvbBBWjqSpqysWtkzX0lI3LpXWSQpmzsOm+53vwV+uFV96jdi553PJxgAHWkYQPXkZWNXcEYb1I1xXsbdlYX6F5AXEV9u6i6cRVTd+ogbZm5p+WGw5E195cxyeUssCSgZhtELQBYm5ZYx0lLtTo2pfr29wxLl/mqOnDQX9b/BKxfLdUyzm67JoJNbs+nYEmgvP+ryH3HqVmorrI+8+BXt/d2Kmqbgl5Ix4bNHf8lNPkIw9JFx4btszXdO46cx8u4pGHD3pRcMfA1rmOG4YRzVPyZB79Ois2C5bql179MLOvQs+cQ5k6OEVs2fFAmI2v4iMmJqh35cf6yKS27wVh/soMeNhhOKBk5uaQ0hpaNCH/ufP6LCmUlTfiteOxvAxNukSWBqLpxdbtgLfd1kbVjCwhDWNslK1lRdeNgggE8JWJDnXlH1Y2zD3bBFGQ4RLAB0yqGcxQ1in9+n9maAwAbkEtI6W12VhdkG2AjUoC5zxdVJdaRmrhE94LluslVXfWf/YPHF8AFaCO3wNyekYqBrwsuf+4avV0EG9/4jIqBrxtHn24rahZ/sbzj9lYO/Z3HFyQUNIEcLbzXHD430HT/We3ID5lnepmcF6osXipp2CgoMzbn1FQMflN280lSeeeWvLpJscFwgjBzTKv7sP7uPxtHn+Z8eNs3PkM8R4k++Rfvyfn0hjY2EuuJPJECr1ABS9/o/EujaE+arIHBK5QbJTWpAuCXFvE1Lh5fsMKYXNVE11QUQL3N7HpRFqnr69p6SbymMX2fyhs2I8MgbGYXNjPyJf7zK4WwQdggBWgrgLChLdmf37ahHOVNAYQNwuaNKaBnz3GNFhqYTBuMFca2vgn7px19ehERNm/spZneFzZzYilp5PZ86hix5SVrpKDMKOodt/CJfsl0aEVH2LwZbDSYztlt15ruPzt140uwCR9+bbbBGw91DfD4Ate1O6CnNIdB/EafKy1zKGb3xnu2eV0gt+6DyyR1e0B/h/6WDdBnuYdn0HB30HB34K1zqz+sNz+wZ76GHnw6n6HHzErhXGzyv9Hu3lau7u9H7j1LT3Q/O2FIq702MmiY3AENL5fTJwP6O5RsJux2jZISQC7+Nzs8Oir142KgwS+IZRcaW3bzCUwBwwm3UO9LD7jwqr5wAj5drKaTVpB0bqS2Y6h615Ft81QY8BHYdn2oa4Dq87rdCJuJ7/51aw3Tn6uiWdQ7frDlk5V2HJ+t6S2Pfrf0FTaW67JKakd+XJNRMEVsFJnWQcPd1PfVpfEkMzsV5uXZWWWWnuhUN/EKAmxU3dwVmdbqvr7s87U2BdnC8MoMl6Zi9vladX8/JZa99tpIwJtsbBbqGvldb2dmpxolkntewWWUlLD6w/ql5la4pa3Oe2v8b7TrblgLn2I4sb/p0rqsYqqPW6h353C1ga0NuLSYTPg0rSCx5UaZpaeLjbf72VuVm/dvho8wnMB1zFoe/a7N8qB6vla3nGJzpGswct/xTYcra0d+bBx9GpWeD1RwX7+ruO8hd+zngr99Aawy2JuSgaUHVSafrem5PZ9SfUTc2iwPHl/gFZta1DvWcPdfSeWdC5brgjCBO7OOf3z39Of/qR35YcfJlqVaQtsEHl+wq7StduSHNRkFqTXdtSM/QmuqhWp6cbm11be/r7vzU2pNt7Ke8KwCkUzhraVvNI8vWG7IApuIWx//sbfhAniq5+ANdpRNERtyr/75WoP4jSD6PPWVAQNdahwOuF1qbuV3tW2BlkFAf8dCHdL8AcMJgM0iPaE5rf7Wjf7X20F/pRkRGjh0fqm5FQgJP2Vjo7t+jUN5jhqH495WDqMYJSWwz9XAW/vSYw4V5B5zcM1fpt089l+4MxV4uoV6tw8JdwDDkBhOvEvoXvi80SuaNLlV0jFoG6zsGKqe+2KHk39pNGj3+9RYr9Utv9hUDX8XkZanqG26TN8aNMYGTr4tj373SzigwXSOSMs78+BXwtxJy8qt9fEfSxhGVJm2F3E350x8Z9RHwA2w2Vvfs0hdf5m+dcXgN3CkFJWebxcaS5g56jl4H+oagLtxeXxB4K4sz5gkHl/A3pTsl3AAmqYklXfm9owYuwcxLF2SyjtJU3jKqEk894jUXLDffrG6QXHfo/TGiyLbmTGcmDo2ZhlJ8I1U8/H2u94+V1V4WMKqbbF2JUfI/ZcNhdrREaAkVGwW6Zk41eb7ftIKHlnnZbpyS8QLLBsbh4oc/biYuSt0Avo73jUWdhEQmzlKGkose+/LXLviwzDllXYcHl+gZjIxqAODtI++ON02UNE2WHm47gDsbZgeTpcecBlm5hhOZFfuO1S7/9IDLnwK0hSxyYMZvSaH/GIDrJ2o1U4oaDrY2gd98i/eW59NGjPXjvxo7kW+E1uPN4Bd9/mXRmVPDAA2cIv+jpMt2wqFhx/A9DGccAiLqx35Efjw+AJtlscyA2seX6CsZwlMjjGcYFg48/gChqULCLZguW7j6FNjd9JIRtq16UhVbs8IhhPxJ06vyyrhbN7b8vA3kcBTx2a5B9vvervCc9tp0/RE6tvpcvokGBoZ7dpqV0ryA3ubwMGuwFvnwAxHd4NwiOhcX2B7UpLRe3oimKhQP0FqZP/W36FoQfacTjUn4CQKzG3IXIbOBw13+37SquIgtFDEcILJieLxBUs0X2jsjBxs/WJCTJztHfzZJZ05rTfLlzJI8x6XEK9LD7hLNFauXuN/sv2orpXVpQdcpscLR9tszqmhvhsiYr7yW/nFBiBBrXD22WtwpzCGE7tPnU2t/SsYJYckHVI3dWj64lnMofKFanotD39TNyUPu5F2AWxU9IWjEdLK93lSz7/RyA86boKNyTy+gDv+C0gEGCcCQ+UlDCPCzJHHFygoMxzD48S3eLE3kSY60q7Yo9UnLo9a+a09/vHd+cu0veNeChsFFU2/vjZVN3eywW4t03lPuM15oa5R4ND5JSbk4T4qTi7+N9rnriBP7RDObdw9lGzsmQeTjfdsg+V0biiUhg37XA1ubQcuw91b4ZIAIyQIrkCs2rYZTqKMkhK8ehoULVkqTi4OFTnqfr4wF9KUyIM0JVLWk3rwkJKOQc9oY8DGUAwnXEM5lx5w9W1Y3GunGGbmOpYW4thsK2re1/ARNYvX6pZfbMJTJobCQILstmsxhyZGzxCbiLS85KpzXrFpazNP5vaMmHgGV9/+XrZqABs4Cdl8rDqt7kMMJ5bpWzd98Sws5RiY0tiGbIL9gERs5qpoOobHkWFkjspEChORmlt356eSq491bckTF8JTcl5mkIbhhE1BtuHurQu0VwXeOrdQV9iE665fEzTc7X+zA1xBw91EALksRh2kzcEJd165ZlgIKOE0Bmms/KzAofMgi4CBTrIAzydRcJCG4cSilSa+va1LTCamfKDT1nPwFlGGenu6tzg2nTxUAAzSqi+cCIwNw3DC3N1RfJB2gHsl9mg1Nfprdb9N2GwrbKZ2xOQg7fnJQExOZOn1L5OrulbacbLbrq3PLt1b3yNbNWnYWAesa7r/DMYNSzk2KTYMSxfyoAyWJ4w1qcPKby2PL4Dtwv7my+It5dQHaRhOaEWGOdcXaAQFuDZPrE05VORYHc1Yam4FLruSI1bHyJ8FqdhgOKEZFuLV0wDGeFqRYWQHZSraCUib2yioaPr28XQ3rIW5cC42g0kUFRsMJyw+2MvKf8HUufQaH84nxRXDtfR6Rhv9YkiewZJAXrNwxh+duK5zWHRJoO7OT47hoocfeW/ZV9z3kDpCEc9oej5vEzarnP1bH//hl3CAMHeKSMtrefQ7mFEsVjdoefhbcd9DDCfCUo413P1XyJ6J2adEXaRho8F0bnn0O5iZ6NiwKwa/mRQbDCf2VHbm9nxqtjpczcSOyYnaVtRMPRxDvABzVbSKesf3N1/WsnLz3rKPugA9T0Vbm+UBihey57A2ywPYVIonQvVZoL3K/2aHdW6m4U7yUBHyiKbnUw7QvQAfnbVRPldaMGWGCDYKKpqci83C6Y2ypiu3hN1Vo+7ni1vbaa+J0I+LkfG7zQqv1YFD5xdoTZwEYp2XCSZRItjgVnaBt84pWpJTIHBF7y9Mb7wIbzGc2JIZ57sh2NzNycGffbL9SMuNMjC3wXAirSCx6ZNSUxcHG457+1Bl3IEXCDFjh9Xf/Sc454CaYHhKDo8vSCzroHq+EvfbhA15olpMUnHfI+74L0W9Y9QfmPM++mxnCY88udPRh8cXmLHJ3lzGJQ0bDCdWx6aUXv+yrP/JBx03g3ZnTwWbRer6sUerK2992zz236Le8dij1ZNuwid/7jx7rXnsv2U3n1BtlUHfRZ0swU5JRnXItbLGwsDBLvgDDiM4iHyhNSfO6HjXiBk03K3q7iGCDYYThrvjvS40KCwjD2Sbz9BnZqdyLjb73+wgf+58PieR1tsws1PdWl8wddZeE0FOotR0RLAhFwzqTkz8QIQTqqusG+/9W3WVNaxXTFpM0yelH442tA1UvF+VoWU+8bvNYjWdvYV7zo3Udt2u2XVk+/zn6x8w4s7iVokW19sKm3l8werYFBjyVTnkFJtXVT2Ujjwr8N7B4i15wmMop11OdVOH6tvfw5/XqOkU9z0qvcafqzJxeDL16cu4ZzI21Dab6p7Ksa4voymIm32WPEBD/NpRdOblE0cpTKoAWHWQvaQ5aSLSAsxkbCTaMOraeklsmaQJNG1/wsxRYgHA5oBpJ4siyoMCMxkbedAXlWFGKoCwkbVyMCO/clSpl1cAYYOwQQrQVgBhQ1uyl2+rUApvuwIIG4QNUoC2Aggb2pK9kpZSmnWn95Z9x7qHGu/9u3Lo7zuLW+GuORmZWh1Jp25MDhrunqumAzwNdws3DWA44ViV51hF/gGBzxWuSPig4W5gG6OzLlrkEeu4cEfMPELPPDOZc7HJ73q7y+mT0KSHdTxLJIrOOnI/9aTWnTJqJP+PEDZvABsZ1p1ZvKvBiR+YscNYgRuKeseOnh+a9B1abGCKW9uZH9jjc4ULdijPUdKwOpIeONjl29s6T134t6QQG0VLFgjm3FDoWJkH3MA0TWdddOBgF/ABn4tXkcelY8oM59NFwOoTt7ZjhAQZ7RICyTqe5dJ4khoFbE2Y1Lpz0nrJcwA5xWbWWndS3xWHMNIkYZnBxPYT6lMRt+GOOM7FCZMhqyPpnp1Vrs3Fq7YJ7YchNjCiQ3kOdbcLhhMAGxgAOjTDQyRafWI4wTqeBToxGBg4RDbXiFh3igR+627lF5tZbt0J/pmMO/bzYkJozCz73ZKIjbq/n/ffuMDM5mWwkWZQMBVsJFp3yq6L/D+VX2xmuXXnwhUrT1wejZnaf8KQ2zEl9TbAnAZYXE4RG5GJiv4Wcgc01erTsfo4abM52AVoFJ/bKNuSBoKyrTvlHwzZJZRfbGazdedcFc20ug+zeFcn3UkNv12J2JA228FBnItNCqpaU8RGZG6zQJvs65wbCqG1zLuG5uDAp7lqpK2o+NwGnGQg27oTFvstdcgvNuIb5meJdaeCMiOpoutQ1wD1rzknfb2kYTNHScOzq2plzNqpYyOel3VepnNjIfQHpgcQm0nnNuLWnTCpt9TxNmEzK6w7lTR2nzp79PzQuxoTfzU3lXdLGjbA9tOrp8GpNl/k/aaxJBARGjDQuWil8IwouthItO4svHK/uO+hyOE1U6mpPIR5m7CZDdadO4rOVAx8bcYOg7unF6pNHJkp8Y2RtgDt2VklDK/MYHfXBQ52TREb6moyOMEDe2716dFRqe7rg1vamu3fQ/469PxAD/FBGjjMQGQlTdy6s+Xhb+SJPxYTx9lIrJ18er5N2MwG687G0aciJjrgD9ZlvD3Sfu6cwAYndNZGBQ13TwUbkSUBl8aTIOv5DH2L99O8L3MD+jvcWk5pBAcCf/ElAeMU8gxeEWxErDuBMUzp9S9fhw2ZDK1e1SM5xeZVVQ+lI58KuL23E5zSKJ/Fm7RUMxkbkWYb3iLrzklfi9cdIKGg6TWZK7/ukoP0ZzI2cHog4kDWnX/OuzWDc5nJ2Mzgrw1V7c0qgLB5A1s53+xXjnJ/eQUQNggbpABtBWhjA/a0vzyvKAWkwNurAG1s1E0dakd+mMoJq2+vKKjkSAHZCtDGBsOJ5Kpzaw8UyU4XPUUKzGAFpoONfVhs5dDfFZRf+NvRGawRqhpSQESB6WAD/hrJwOmFP/oRSRfdIgVmsALTwQbDicpb38r4c5IZrBeqGlIAw4lpYnPi8mhEai5SECkwOxWYJjYlVx8H7nrhz7Fmp3yo1rNTgelgo6DMaPrimX2Y8EiU2SkcqvVsVmA62OjaerU+/kNJl/yfeHQhBWahAtPBJmrf8cwzvbNQLFRlpABQgDY2CsqMkquPWYEbkIJIgVmrAG1sPNbvzm67Nmv1QhVHCkx/ARpphxSYzQrQ7m1ms1io7kgBoADCBi0GIgVoK4CwoS0ZanGRAggbhA1SgLYCCBvakqG2FimAsEHYIAVoK4CwoS0ZamuRAggbhA1SgLYCCBvakqG2FimAsEHYIAVoK4CwoS0ZamuRAggbhA1SgLYCCBvakqG2FimAsEHYIAVoK4CwoS0ZamuRAggbhA1SgLYCCBvakqG2Finwzhx0+gxSAClAR4E5OPHOX1RXoQspgBSgpQDCBrUaSAHaCiBsaEtGq1lCgWekAggbhA1SgLYC/w+APKNAuaKmUQAAAABJRU5ErkJggg==;" parent="1" vertex="1">
                    <mxGeometry x="40" y="400" width="274" height="106" as="geometry"/>
                </mxCell>
                <mxCell id="39" value="" style="rounded=0;whiteSpace=wrap;html=1;fillColor=none;strokeColor=#FF5471;" parent="1" vertex="1">
                    <mxGeometry x="52" y="412" width="200" height="20" as="geometry"/>
                </mxCell>
                <mxCell id="43" value="" style="rounded=0;whiteSpace=wrap;html=1;fillColor=none;strokeColor=#FF5471;perimeterSpacing=0;" parent="1" vertex="1">
                    <mxGeometry x="87" y="431" width="200" height="20" as="geometry"/>
                </mxCell>
                <mxCell id="45" value="" style="group" parent="1" vertex="1" connectable="0">
                    <mxGeometry x="40" y="160" width="320" height="200" as="geometry"/>
                </mxCell>
                <mxCell id="20" value="" style="rounded=0;whiteSpace=wrap;html=1;" parent="45" vertex="1">
                    <mxGeometry width="320" height="200" as="geometry"/>
                </mxCell>
                <mxCell id="21" value="" style="endArrow=none;html=1;rounded=0;strokeColor=#E6E6E6;" parent="45" edge="1">
                    <mxGeometry width="50" height="50" relative="1" as="geometry">
                        <mxPoint y="40" as="sourcePoint"/>
                        <mxPoint x="320" y="40" as="targetPoint"/>
                    </mxGeometry>
                </mxCell>
                <mxCell id="22" value="DATA BASE" style="text;html=1;strokeColor=none;fillColor=none;align=center;verticalAlign=middle;whiteSpace=wrap;rounded=0;labelBackgroundColor=none;labelBorderColor=none;fontSize=16;fontStyle=1" parent="45" vertex="1">
                    <mxGeometry x="115" y="10" width="95" height="20" as="geometry"/>
                </mxCell>
                <mxCell id="24" value="" style="rounded=0;whiteSpace=wrap;html=1;labelBackgroundColor=none;fontSize=16;align=center;fillColor=#ffe6cc;strokeColor=#d79b00;" parent="45" vertex="1">
                    <mxGeometry x="10" y="50" width="300" height="140" as="geometry"/>
                </mxCell>
                <mxCell id="25" value="" style="rounded=0;whiteSpace=wrap;html=1;labelBackgroundColor=none;fontSize=16;align=center;" parent="45" vertex="1">
                    <mxGeometry x="10" y="80" width="300" height="110" as="geometry"/>
                </mxCell>
                <mxCell id="26" value="table_name" style="text;html=1;strokeColor=none;fillColor=none;align=center;verticalAlign=middle;whiteSpace=wrap;rounded=0;labelBackgroundColor=none;fontSize=16;fontColor=#333333;" parent="45" vertex="1">
                    <mxGeometry x="120" y="55" width="80" height="20" as="geometry"/>
                </mxCell>
                <mxCell id="27" value="" style="rounded=0;whiteSpace=wrap;html=1;labelBackgroundColor=none;fontSize=16;fontColor=#333333;strokeColor=#666666;align=center;fillColor=#f5f5f5;" parent="45" vertex="1">
                    <mxGeometry x="10" y="80" width="300" height="110" as="geometry"/>
                </mxCell>
                <mxCell id="33" value="" style="endArrow=none;html=1;fontSize=16;fontColor=#333333;strokeColor=#333333;" parent="45" edge="1">
                    <mxGeometry width="50" height="50" relative="1" as="geometry">
                        <mxPoint x="10" y="110" as="sourcePoint"/>
                        <mxPoint x="310" y="110" as="targetPoint"/>
                    </mxGeometry>
                </mxCell>
                <mxCell id="34" value="" style="endArrow=none;html=1;fontSize=16;fontColor=#333333;strokeColor=#333333;" parent="45" edge="1">
                    <mxGeometry width="50" height="50" relative="1" as="geometry">
                        <mxPoint x="160" y="110" as="sourcePoint"/>
                        <mxPoint x="159.82999999999998" y="80" as="targetPoint"/>
                    </mxGeometry>
                </mxCell>
                <mxCell id="35" value="&lt;div style=&quot;font-family: &amp;quot;meslolgs nf&amp;quot;, &amp;quot;droid sans mono&amp;quot;, monospace, monospace, &amp;quot;droid sans fallback,&amp;quot;, &amp;quot;droid sans mono&amp;quot;, monospace, monospace, &amp;quot;droid sans fallback&amp;quot;; font-size: 14px; line-height: 19px;&quot;&gt;&lt;span style=&quot;font-style: italic;&quot;&gt;    row_name_01&amp;nbsp;&lt;/span&gt;&lt;/div&gt;" style="text;html=1;align=center;verticalAlign=middle;whiteSpace=wrap;rounded=0;labelBackgroundColor=none;fontSize=16;fontColor=#333333;" parent="45" vertex="1">
                    <mxGeometry x="32" y="86" width="100" height="20" as="geometry"/>
                </mxCell>
                <mxCell id="36" value="&lt;div style=&quot;font-family: &amp;quot;meslolgs nf&amp;quot;, &amp;quot;droid sans mono&amp;quot;, monospace, monospace, &amp;quot;droid sans fallback,&amp;quot;, &amp;quot;droid sans mono&amp;quot;, monospace, monospace, &amp;quot;droid sans fallback&amp;quot;; font-size: 14px; line-height: 19px;&quot;&gt;&lt;span style=&quot;font-style: italic;&quot;&gt;    row_name_01&amp;nbsp;&lt;/span&gt;&lt;/div&gt;" style="text;html=1;align=center;verticalAlign=middle;whiteSpace=wrap;rounded=0;labelBackgroundColor=none;fontSize=16;fontColor=#333333;" parent="45" vertex="1">
                    <mxGeometry x="190" y="86" width="100" height="20" as="geometry"/>
                </mxCell>
                <mxCell id="37" value="&lt;div style=&quot;font-family: &amp;#34;meslolgs nf&amp;#34; , &amp;#34;droid sans mono&amp;#34; , monospace , monospace , &amp;#34;droid sans fallback,&amp;#34; , &amp;#34;droid sans mono&amp;#34; , monospace , monospace , &amp;#34;droid sans fallback&amp;#34; ; font-size: 14px ; line-height: 19px&quot;&gt;&lt;span style=&quot;font-style: italic&quot;&gt;    List of data goes here&lt;/span&gt;&lt;/div&gt;" style="text;html=1;align=center;verticalAlign=middle;whiteSpace=wrap;rounded=0;labelBackgroundColor=none;fontSize=16;fontColor=#333333;" parent="45" vertex="1">
                    <mxGeometry x="60" y="140" width="200" height="20" as="geometry"/>
                </mxCell>
                <mxCell id="46" style="edgeStyle=orthogonalEdgeStyle;rounded=0;orthogonalLoop=1;jettySize=auto;html=1;targetPerimeterSpacing=0;strokeColor=#FF5471;strokeWidth=3;entryX=-0.002;entryY=0.082;entryDx=0;entryDy=0;entryPerimeter=0;" parent="1" source="39" target="24" edge="1">
                    <mxGeometry relative="1" as="geometry">
                        <mxPoint x="30" y="226" as="targetPoint"/>
                        <Array as="points">
                            <mxPoint x="10" y="422"/>
                            <mxPoint x="10" y="221"/>
                        </Array>
                    </mxGeometry>
                </mxCell>
                <mxCell id="47" style="edgeStyle=orthogonalEdgeStyle;rounded=0;orthogonalLoop=1;jettySize=auto;html=1;targetPerimeterSpacing=0;strokeColor=#FF5471;strokeWidth=3;" parent="1" source="43" target="35" edge="1">
                    <mxGeometry relative="1" as="geometry">
                        <Array as="points">
                            <mxPoint x="20" y="441"/>
                            <mxPoint x="20" y="256"/>
                        </Array>
                    </mxGeometry>
                </mxCell>
            </root>
        </mxGraphModel>
    </diagram>
</mxfile>